HIERARCHY
ROOT root
{
	OFFSET	0	13.1	24.9
	CHANNELS 6  Xposition Yposition Zposition Xrotation Yrotation Zrotation
	JOINT spine_1
	{
		OFFSET	0	9.99999	0
		CHANNELS 3  Xrotation Yrotation Zrotation
		JOINT spine_2
		{
			OFFSET	0	112	-10
			CHANNELS 3  Xrotation Yrotation Zrotation
			JOINT spine_3
			{
				OFFSET	0	206.5	19.3
				CHANNELS 3  Xrotation Yrotation Zrotation
				JOINT spine_4
				{
					OFFSET	0	110.4	14.6
					CHANNELS 3  Xrotation Yrotation Zrotation
					JOINT neck_1
					{
						OFFSET	0	71.8	-50.3
						CHANNELS 3  Xrotation Yrotation Zrotation
						JOINT neck_2
						{
							OFFSET	0	86.2	-25.8
							CHANNELS 3  Xrotation Yrotation Zrotation
							JOINT head_ee
							{
								OFFSET	0	179.8	-8.7
								CHANNELS 3  Xrotation Yrotation Zrotation
								End Site
								{
									OFFSET	1	0	0
								}
							}
						}
					}
					JOINT left_clavicle
					{
						OFFSET	-43.2	22.4	-70.8
						CHANNELS 3  Xrotation Yrotation Zrotation
						JOINT left_shoulder
						{
							OFFSET	-93.9	-5.79999	48.7
							CHANNELS 3  Xrotation Yrotation Zrotation
							JOINT left_elbow
							{
								OFFSET	-291.4	-30.8	15.2
								CHANNELS 3  Xrotation Yrotation Zrotation
								JOINT left_lowarm_twist
								{
									OFFSET	-110.7	-3.89999	13.6
									CHANNELS 3  Xrotation Yrotation Zrotation
									JOINT left_hand
									{
										OFFSET	-110.7	-3.89999	13.6
										CHANNELS 3  Xrotation Yrotation Zrotation
										JOINT left_ee
										{
											OFFSET	-80.8	-5.10001	12.1
											CHANNELS 3  Xrotation Yrotation Zrotation
											End Site
											{
												OFFSET	1	0	0
											}
										}
									}
								}
							}
						}
					}
					JOINT right_clavicle
					{
						OFFSET	43.2	22.4	-70.8
						CHANNELS 3  Xrotation Yrotation Zrotation
						JOINT right_shoulder
						{
							OFFSET	93.9	-5.79999	48.7
							CHANNELS 3  Xrotation Yrotation Zrotation
							JOINT right_elbow
							{
								OFFSET	291.4	-30.8	15.2
								CHANNELS 3  Xrotation Yrotation Zrotation
								JOINT right_lowarm_twist
								{
									OFFSET	110.7	-3.89999	13.6
									CHANNELS 3  Xrotation Yrotation Zrotation
									JOINT right_hand
									{
										OFFSET	110.7	-3.89999	13.6
										CHANNELS 3  Xrotation Yrotation Zrotation
										JOINT right_ee
										{
											OFFSET	80.8	-5.10001	12.1
											CHANNELS 3  Xrotation Yrotation Zrotation
											End Site
											{
												OFFSET	1	0	0
											}
										}
									}
								}
							}
						}
					}
				}
			}
		}
	}
	JOINT left_hip
	{
		OFFSET	-82.8	-127.5	0.300001
		CHANNELS 3  Xrotation Yrotation Zrotation
		JOINT left_knee
		{
			OFFSET	-28.2	-396.7	2.2
			CHANNELS 3  Xrotation Yrotation Zrotation
			JOINT left_ankle
			{
				OFFSET	-11.7	-411.3	35.4
				CHANNELS 3  Xrotation Yrotation Zrotation
				JOINT left_toes
				{
					OFFSET	0	-60	-88.6
					CHANNELS 3  Xrotation Yrotation Zrotation
					JOINT left_foot_ee
					{
						OFFSET	-22.5	-16.5	-42.2
						CHANNELS 3  Xrotation Yrotation Zrotation
						End Site
						{
							OFFSET	1	0	0
						}
					}
				}
			}
		}
	}
	JOINT right_hip
	{
		OFFSET	82.8	-127.5	0.300001
		CHANNELS 3  Xrotation Yrotation Zrotation
		JOINT right_knee
		{
			OFFSET	28.2	-396.7	2.2
			CHANNELS 3  Xrotation Yrotation Zrotation
			JOINT right_ankle
			{
				OFFSET	11.7	-411.3	35.4
				CHANNELS 3  Xrotation Yrotation Zrotation
				JOINT right_toes
				{
					OFFSET	0	-60	-88.6
					CHANNELS 3  Xrotation Yrotation Zrotation
					JOINT right_foot_ee
					{
						OFFSET	22.5	-16.5	-42.2
						CHANNELS 3  Xrotation Yrotation Zrotation
						End Site
						{
							OFFSET	1	0	0
						}
					}
				}
			}
		}
	}
}
MOTION
Frames: 16
Frame Time: 0.02
2152.33 692.722 -747.883 170.951 -55.7645 174.229 -3.19183 -0.354929 -1.9884 -3.18966 -0.227709 -2.00695 -3.17855 0.31041 -1.99583 -3.18411 -0.00862319 -2.0198 4.01388 11.5406 1.1186 4.40345 19.0187 1.89 -0.0 0.0 -0.0 5.61365 20.3522 10.6315 12.8814 -38.34 64.4109 2.35632 -49.4057 1.08405 43.8523 -0.564653 -5.4386 1.28545 5.25736 10.6966 -0.0 0.0 -0.0 5.53517 14.1237 -10.0485 -23.8701 24.5883 -61.9253 0.417109 11.6746 -0.0426429 15.0191 -0.282609 1.89226 2.96294 -30.1805 -28.8078 0.0 0.0 0.0 -22.8762 -6.30316 8.38855 -9.78249 0.277517 1.47383 41.9011 21.2344 -5.2322 -34.8979 0.0 0.0 -0.0 0.0 -0.0 24.96 8.00168 -7.65136 -0.296314 -0.0120876 -0.0438658 -15.5552 -20.7196 -2.38475 -36.4519 0.0 0.0 0.0 0.0 0.0 
2175.88 696.665 -730.046 170.669 -56.6265 174.076 -3.48042 -0.312715 -1.99587 -3.47822 -0.185106 -2.01171 -3.46848 0.362849 -1.98737 -3.47399 0.044495 -2.01972 3.87643 11.1581 0.648664 4.25835 18.7811 1.35468 -0.0 0.0 -0.0 5.51653 19.9425 10.503 11.3337 -37.4918 64.2744 2.32205 -48.9907 1.05811 42.1649 -0.466631 -5.24626 1.11365 5.20716 9.53063 -0.0 0.0 -0.0 5.82356 14.9789 -10.6057 -22.6008 24.7566 -62.4455 0.422577 11.8233 -0.0437563 14.7173 -0.281846 1.85372 2.93129 -30.0882 -28.5958 0.0 0.0 0.0 -22.4259 -6.28785 7.26273 -13.1032 0.314044 1.98198 39.9161 20.5211 -5.03314 -35.6399 0.0 0.0 -0.0 0.0 -0.0 24.7269 7.94627 -8.16822 -3.14183 -0.116549 -0.468025 -14.2757 -18.1405 -2.16773 -34.7861 0.0 0.0 0.0 0.0 0.0 
2201.78 696.863 -712.922 169.001 -57.0409 173.155 -3.66219 -0.250705 -1.98862 -3.66 -0.123682 -2.00054 -3.65248 0.425332 -1.95873 -3.65782 0.110715 -2.0013 4.0184 10.3927 -0.0546111 4.38534 18.0342 0.505224 -0.0 0.0 -0.0 5.88236 19.2529 11.0908 9.57965 -36.685 63.9981 2.18587 -47.2709 0.956688 39.4825 -0.322617 -4.93487 0.625256 5.23007 6.30145 -0.0 0.0 -0.0 6.22146 16.5329 -11.3514 -20.9652 25.0682 -62.729 0.410061 11.4826 -0.0412282 14.3665 -0.280703 1.80894 2.88814 -30.1979 -28.343 0.0 0.0 0.0 -21.2733 -6.22819 5.97161 -20.5325 0.288928 3.1208 38.194 20.5846 -4.87142 -34.8507 0.0 0.0 -0.0 0.0 -0.0 23.8979 8.17538 -8.56658 -6.52956 -0.213247 -0.978865 -12.1383 -13.9066 -1.82188 -33.9588 0.0 0.0 0.0 0.0 0.0 
2220.53 700.563 -700.124 167.934 -57.7284 172.523 -3.79325 -0.252102 -2.01514 -3.791 -0.12339 -2.02709 -3.78328 0.437373 -1.98321 -3.78875 0.118741 -2.02737 4.83854 9.44418 -0.173876 5.16202 16.3833 0.243067 -0.0 0.0 -0.0 6.37002 19.3257 11.8364 8.39431 -35.631 64.0513 2.015 -44.9425 0.833529 35.8055 -0.149259 -4.49792 -0.321397 8.51346 1.46033 -0.0 0.0 -0.0 6.80718 17.2441 -12.5671 -20.4382 26.2974 -61.7131 0.368373 10.3418 -0.0333361 12.8151 -0.272363 1.61096 3.1773 -30.1767 -30.1626 0.0 0.0 0.0 -18.788 -6.98357 4.84167 -25.0508 0.201601 3.80846 31.604 23.5125 -4.25388 -34.9041 0.0 0.0 -0.0 0.0 -0.0 22.8232 8.24438 -8.81932 -8.45591 -0.254703 -1.27156 -6.84953 -10.2769 -1.01675 -34.0577 0.0 0.0 0.0 0.0 0.0 
2243.79 701.358 -685.802 166.959 -58.9061 171.684 -3.92377 -0.283174 -1.9057 -3.92177 -0.161358 -1.91985 -3.9132 0.375693 -1.88964 -3.91818 0.0726027 -1.92525 5.29753 9.0614 -0.668582 5.63103 16.0971 -0.387438 -0.0 0.0 -0.0 6.08031 17.724 11.4737 7.10953 -36.0039 64.0714 1.84863 -42.478 0.718539 33.8054 -0.0668546 -4.2559 -0.618476 10.6962 0.475735 -0.0 0.0 -0.0 7.01485 18.3494 -12.9382 -19.5302 27.2653 -61.6999 0.378077 10.6081 -0.0351002 13.0224 -0.273788 1.6374 3.39931 -30.437 -31.6228 0.0 0.0 0.0 -16.7559 -7.7467 3.74739 -29.4471 0.0648451 4.46914 30.1217 24.0082 -4.09788 -35.0004 0.0 0.0 -0.0 0.0 -0.0 22.5506 8.41161 -9.19883 -13.0243 -0.313518 -1.96988 -1.31566 -5.29123 -0.193419 -33.9876 0.0 0.0 0.0 0.0 0.0 
2263.65 708.958 -671.306 165.603 -59.8558 170.881 -4.2138 -0.250722 -1.84556 -4.21191 -0.132797 -1.85777 -4.20455 0.395248 -1.8201 -4.20916 0.102888 -1.85967 5.32798 8.59645 -1.16403 5.65875 15.729 -0.979036 -0.0 0.0 -0.0 6.07589 14.7852 11.5948 5.46087 -33.3881 63.7463 1.68044 -39.7721 0.607885 32.8678 -0.0311525 -4.1415 -0.748917 9.90011 -0.699694 -0.0 0.0 -0.0 7.53126 21.1192 -13.8492 -17.7059 27.8787 -60.2231 0.391076 10.9642 -0.037533 13.159 -0.274674 1.65483 3.63269 -30.5629 -33.1654 0.0 0.0 0.0 -14.2541 -6.37558 1.76564 -33.6889 -0.114811 5.09511 26.0762 23.1775 -3.60444 -35.6804 0.0 0.0 -0.0 0.0 -0.0 21.9974 9.40512 -9.67301 -16.5166 -0.320849 -2.50557 2.04274 1.28174 0.301657 -35.833 0.0 0.0 0.0 0.0 0.0 
2284.7 713.576 -656.735 166.298 -60.3138 171.904 -4.26635 -0.276676 -1.796 -4.26456 -0.16185 -1.80996 -4.25647 0.355511 -1.78208 -4.2609 0.0696526 -1.81584 5.9646 8.04318 -1.34388 6.27922 14.8716 -1.26894 -0.0 0.0 -0.0 6.19509 13.0896 11.8571 3.59704 -30.9588 64.0452 1.46049 -35.883 0.472917 31.5572 0.0156055 -3.98066 -1.09702 10.7314 -2.56044 -0.0 0.0 -0.0 7.90871 22.8417 -14.5296 -16.1982 28.9111 -59.2604 0.430786 12.0464 -0.0454538 13.0787 -0.274158 1.64458 3.75175 -30.5382 -33.9564 0.0 0.0 0.0 -12.0594 -5.66501 0.750154 -36.824 -0.277174 5.54852 23.3779 22.7011 -3.26471 -36.2455 0.0 0.0 -0.0 0.0 -0.0 22.3482 10.0344 -10.305 -20.7493 -0.285979 -3.15393 8.95232 4.0944 1.30576 -36.8901 0.0 0.0 0.0 0.0 0.0 
2306.09 716.599 -648.1 163.326 -60.426 169.2 -4.48636 -0.314342 -1.73946 -4.4847 -0.203036 -1.75593 -4.47549 0.307386 -1.74071 -4.47972 0.0286612 -1.7674 7.53126 7.76893 -1.78207 7.88172 14.6332 -1.94459 -0.0 0.0 -0.0 6.6058 11.4935 12.6238 2.31595 -29.2615 64.2234 1.2154 -31.0499 0.337642 30.5914 0.047697 -3.86149 -1.41222 12.4846 -3.76957 -0.0 0.0 -0.0 7.82708 24.1457 -14.2288 -16.4909 29.8125 -58.6017 0.468335 13.0617 -0.0536159 12.6577 -0.271217 1.59088 3.82346 -30.705 -34.4526 0.0 0.0 0.0 -7.26193 -3.54523 -1.03945 -44.7202 -0.79404 6.64605 21.4104 21.6377 -3.0011 -37.3836 0.0 0.0 -0.0 0.0 -0.0 20.6101 10.771 -10.3197 -24.3344 -0.219063 -3.6999 13.9316 4.33146 1.99493 -37.4865 0.0 0.0 0.0 0.0 0.0 
2319.31 720.081 -640.952 163.927 -61.0936 169.263 -4.50522 -0.185029 -1.58807 -4.50382 -0.083614 -1.59662 -4.49918 0.376954 -1.55375 -4.50253 0.12687 -1.59377 8.16158 7.23547 -1.0127 8.43146 12.9849 -1.08438 -0.0 0.0 -0.0 6.76308 10.9091 12.9228 1.43331 -27.4994 64.2095 1.12811 -29.197 0.293829 29.4964 0.081646 -3.72574 -1.77292 14.1239 -5.27237 -0.0 0.0 -0.0 8.2932 27.0527 -14.9599 -15.8672 28.8401 -58.3344 0.458403 12.7939 -0.0513937 12.81 -0.272327 1.6103 3.41172 -30.4441 -31.7041 0.0 0.0 0.0 -3.17419 -1.9345 -2.04791 -50.2917 -1.24767 7.37348 21.3167 20.7006 -2.97693 -37.9358 0.0 0.0 -0.0 0.0 -0.0 18.0138 10.4974 -9.9255 -21.3867 -0.276581 -3.25128 18.5572 -0.715308 2.56688 -37.4862 0.0 0.0 0.0 0.0 0.0 
2346.71 724.155 -627.991 164.27 -61.1145 169.355 -4.64973 -0.0296211 -1.35207 -4.64871 0.0564666 -1.35121 -4.64856 0.444261 -1.27735 -4.65075 0.23697 -1.33147 8.6228 6.32821 -1.46829 8.8659 11.8406 -1.67417 -0.0 0.0 -0.0 6.83467 10.0247 13.0845 -0.838297 -27.0775 64.5849 0.935735 -24.869 0.20633 28.6778 0.105325 -3.62385 -1.77044 15.1211 -4.78226 -0.0 0.0 -0.0 8.2333 29.2317 -14.5811 -13.8947 29.7658 -56.6716 0.514866 14.3084 -0.0646251 12.9302 -0.273166 1.62564 3.53254 -28.5682 -32.2741 0.0 0.0 0.0 0.112231 -0.589667 -3.80757 -53.9375 -1.58211 7.82459 18.6276 19.5032 -2.61871 -39.1216 0.0 0.0 -0.0 0.0 -0.0 16.6262 9.64332 -9.1456 -23.6915 -0.233576 -3.60231 22.0343 3.04355 3.02528 -37.1283 0.0 0.0 0.0 0.0 0.0 
2363.5 731.469 -616.711 163.627 -61.3371 168.438 -4.67591 0.0687242 -1.18819 -4.67513 0.144188 -1.18141 -4.67711 0.479753 -1.08922 -4.67864 0.301723 -1.1513 8.16569 5.54714 0.383642 8.276 8.9063 0.564713 -0.0 0.0 -0.0 6.71278 9.7547 12.8766 -2.81461 -26.4618 63.9495 0.833672 -22.4393 0.165372 28.2512 0.117087 -3.57063 -2.17897 20.1065 -4.83839 -0.0 0.0 -0.0 7.8353 28.4351 -13.7981 -10.906 34.5124 -53.1279 0.54407 15.0839 -0.0720339 12.0342 -0.266137 1.51141 3.28676 -30.4581 -30.8991 0.0 0.0 0.0 8.44724 0.27973 -5.73322 -63.4901 -2.5884 8.89838 17.5316 17.8318 -2.46126 -39.995 0.0 0.0 -0.0 0.0 -0.0 14.5424 8.21567 -9.14164 -24.5531 -0.213877 -3.73306 26.7486 2.39619 3.57327 -36.7695 0.0 0.0 0.0 0.0 0.0 
2381.24 734.377 -610.928 162.518 -61.3984 167.277 -4.72435 0.0781248 -1.34418 -4.72336 0.163492 -1.33649 -4.72589 0.544158 -1.23161 -4.72785 0.342837 -1.30208 7.60975 5.05839 1.89267 7.66489 6.77871 2.36315 -0.0 0.0 -0.0 6.84457 9.99383 13.1033 -4.101 -26.0178 64.8864 0.742267 -20.1883 0.132142 27.9694 0.124638 -3.53542 -2.60961 24.6001 -5.03845 -0.0 0.0 -0.0 7.21041 27.3444 -12.5471 -8.67859 38.2251 -50.3632 0.597699 16.4932 -0.0866269 11.0218 -0.256048 1.38249 3.09483 -30.3682 -29.6647 0.0 0.0 0.0 14.3836 0.900921 -6.92485 -69.2746 -3.28016 9.46273 16.1147 17.2388 -2.27093 -40.1432 0.0 0.0 -0.0 0.0 -0.0 12.9206 6.67142 -8.34034 -25.3387 -0.194202 -3.85202 28.7983 0.157514 3.78185 -36.6435 0.0 0.0 0.0 0.0 0.0 
2404.92 735.247 -602.984 161.564 -60.7652 166.564 -4.95937 -0.183378 -1.32713 -4.9584 -0.0985653 -1.3361 -4.95433 0.298407 -1.30608 -4.9567 0.0884098 -1.33681 9.50162 4.3947 2.28117 9.5361 5.15152 2.80639 -0.0 0.0 -0.0 6.77067 11.2895 12.9205 -6.00967 -23.6663 66.2501 0.67333 -18.4461 0.109335 28.1817 0.118965 -3.56195 -2.70693 28.7227 -3.38903 -0.0 0.0 -0.0 6.92507 25.0384 -12.1606 -6.6651 41.204 -48.48 0.639457 17.5767 -0.0988607 10.3057 -0.247536 1.29142 2.98075 -30.0329 -28.8978 0.0 0.0 0.0 18.5313 -2.61858 -5.51612 -74.436 -3.94288 9.90557 15.1415 16.8999 -2.1397 -39.8535 0.0 0.0 -0.0 0.0 -0.0 11.341 6.63228 -8.61647 -25.6069 -0.187112 -3.89256 26.7192 -5.15926 3.52832 -36.9068 0.0 0.0 0.0 0.0 0.0 
2418.94 734.59 -603.291 160.392 -58.6973 164.627 -5.4143 0.0166982 -1.03423 -5.41371 0.0824716 -1.03107 -5.41429 0.38953 -0.958223 -5.41549 0.233316 -1.00771 7.34449 5.32375 2.5274 7.39877 6.67994 3.12194 -0.0 0.0 -0.0 6.67224 9.10541 12.8252 -7.44056 -24.979 66.4942 0.572223 -15.8262 0.0795365 29.9592 0.0676146 -3.78319 -2.25647 28.8635 -0.895936 -0.0 0.0 -0.0 6.96154 24.3776 -12.3054 -5.95692 42.6671 -46.2766 0.717774 19.5736 -0.123812 8.25975 -0.216954 1.03188 2.67795 -29.9816 -27.0074 0.0 0.0 0.0 22.2991 -3.04949 -5.18857 -75.6266 -4.10125 9.99917 12.0239 19.0631 -1.73033 -40.1383 0.0 0.0 -0.0 0.0 -0.0 9.08902 5.82083 -6.96499 -25.7889 -0.182193 -3.92006 28.6723 -4.02184 3.74737 -36.1361 0.0 0.0 0.0 0.0 0.0 
2443.72 735.673 -600.798 162.527 -58.7876 166.46 -5.10051 0.134768 -1.20129 -5.09973 0.21093 -1.19028 -5.10316 0.554224 -1.07431 -5.10457 0.377614 -1.14834 7.19797 4.13996 2.0311 7.23025 5.1467 2.50728 -0.0 0.0 -0.0 6.28967 10.0884 12.1135 -7.98696 -24.6387 68.7929 0.506317 -14.0803 0.0625287 30.5713 0.0483444 -3.859 -1.86793 28.7317 1.12515 -0.0 0.0 -0.0 6.45082 20.5096 -11.5391 -5.55939 44.0434 -44.716 0.927269 24.6709 -0.202783 6.50572 -0.18337 0.810346 2.60544 -29.9721 -26.5611 0.0 0.0 0.0 24.8325 -6.97391 -3.6551 -73.7117 -3.84751 9.84704 9.77687 19.0326 -1.41739 -40.1277 0.0 0.0 -0.0 0.0 -0.0 8.25188 8.98783 -6.53138 -26.467 -0.163094 -4.02238 32.3012 -6.41706 4.12921 -34.585 0.0 0.0 0.0 0.0 0.0 
2460.87 734.604 -595.929 162.417 -60.8304 165.363 -4.90613 -0.251935 -1.07404 -4.9055 -0.183085 -1.0879 -4.90075 0.143629 -1.0938 -4.90242 -0.0309083 -1.10276 6.27955 4.58727 3.53538 6.31887 4.6431 4.27783 -0.0 0.0 -0.0 5.95202 8.38241 11.5428 -9.90437 -24.3181 70.3064 0.411321 -11.5169 0.0414795 31.3046 0.0241945 -3.94954 -0.940614 28.8675 6.17591 -0.0 0.0 -0.0 5.93217 19.2615 -10.5161 -2.73025 45.3364 -43.6422 1.09256 28.4223 -0.276693 6.94369 -0.19239 0.865565 2.57295 -29.0361 -26.1942 0.0 0.0 0.0 25.4914 -5.1865 -4.72065 -70.0132 -3.3725 9.52971 6.54771 18.2732 -0.956283 -40.1586 0.0 0.0 -0.0 0.0 -0.0 6.53452 4.64063 -4.36326 -26.4249 -0.164314 -4.01603 34.0206 -6.84291 4.30322 -33.1415 0.0 0.0 0.0 0.0 0.0 
